<svg xmlns="http://www.w3.org/2000/svg" viewBox="0 0 512 512">
  <circle cx="256" cy="256" r="256" fill="#87dcff"/>
  <path d="M285.809 1.783L275.24 34.711a24.774 24.774 0 01-17.038 16.321l-26.512 7.269a24.783 24.783 0 01-6.551.882h-39.672a8.257 8.257 0 00-8.185 7.166l-4.55 34.124-25.34 1.327a8.258 8.258 0 00-7.82 7.918l-.877 22.023c-.198 4.959 3.992 8.971 8.937 8.559l16.882-1.407a14.863 14.863 0 0010.842-6.149l15.613-21.776 33.393-1.193c7.142-.255 12.188 6.931 9.595 13.591-5.819 14.943-5.827 16.223-5.827 17.537a8.253 8.253 0 008.258 8.258 8.26 8.26 0 008.137-6.855c.564-1.903 3.086-8.501 6.388-16.877 1.379-3.498 6.13-4.013 8.202-.875l2.135 3.231a16.515 16.515 0 0018.196 6.81l14.746-4.092a13.364 13.364 0 008.933-8.165l2.828-7.504a16.516 16.516 0 0112.116-10.35l9.53-1.967c6.485-1.338 13.361 2.583 14.49 9.108 1.153 6.666-3.531 12.722-10.038 13.468l-22.979.617a8.776 8.776 0 00-8.538 8.565l-.052 2.2a4.598 4.598 0 002.507 4.205l13.214 6.742c5.03 2.566 6.669 8.962 3.494 13.632a9.38 9.38 0 01-7.758 4.106h-69.693a14.53 14.53 0 01-5.329-1.012l-58.482-23.038a12.116 12.116 0 00-12.665 2.375l-55.386 51.19a16.518 16.518 0 00-4.827 16.077l11.261 45.747a16.517 16.517 0 0015.151 12.545l62.398 3.355c12.277.66 22.212 10.224 23.34 22.466l4.733 51.387a32.258 32.258 0 003.036 11.033c5.258 10.969 17.517 35.902 24.332 44.521 8.774 11.097 30.391 11.537 37.677 4.903l50.734-41.515a24.777 24.777 0 007.837-14.745L352 309.677l40.287-44.398c3.924-4.326 2.162-10.959-2.832-13.102l-.722.484a21.853 21.853 0 01-10.226 3.613c-.645.056-1.29.089-1.935.089-7.468 0-14.395-3.79-18.419-10.194l-30.758-48.839a8.273 8.273 0 012.589-11.395c3.887-2.411 8.96-1.258 11.395 2.589l30.758 48.847c1.056 1.694 2.927 2.613 4.927 2.452a5.424 5.424 0 002.484-.879l41.575-22.784c4.333-2.375 5.481-8.081 2.402-11.946a7.967 7.967 0 00-7.139-2.951l-8.733 1.004a8.266 8.266 0 01-6.455-2.051l-26.15-23.392c-3.395-3.04-3.685-8.258-.645-11.661 3.032-3.403 8.25-3.685 11.661-.645l23.387 20.919 14.21-1.637c2.944-.363 5.863.927 7.613 3.331l2.734 3.742 13.85-1.662a16.516 16.516 0 0116.496 8.542l27.968 51.713a16.51 16.51 0 009.494 7.873l10.061 3.534c.03-1.626.123-3.238.123-4.871 0-131.297-98.86-239.443-226.191-254.219zM392.75 143.097a8.185 8.185 0 01-4.613 1.419 8.231 8.231 0 01-6.847-3.637l-17.202-25.46a8.245 8.245 0 012.218-11.46c3.766-2.565 8.919-1.556 11.46 2.218l17.202 25.46a8.246 8.246 0 01-2.218 11.46z" fill="#bee86e"/>
  <path d="M339.957 428.043c-141.385 0-256-114.615-256-256 0-49.18 13.896-95.102 37.935-134.107C48.766 83.005 0 163.795 0 256c0 141.385 114.615 256 256 256 92.205 0 172.996-48.766 218.065-121.893-39.006 24.04-84.927 37.936-134.108 37.936z" fill="#00c3ff"/>
  <g fill="#bee86e">
    <path d="M367.476 391.226a8.258 8.258 0 01-6.314-13.572l21.677-25.806a8.259 8.259 0 1112.645 10.629l-21.677 25.806a8.244 8.244 0 01-6.331 2.943zM185.573 9.891l-7.347 21.892c-1.452 4.323.879 9.008 5.202 10.46a8.265 8.265 0 0010.46-5.202l10.696-31.87c-6.438 1.311-12.759 2.934-19.011 4.72z"/>
  </g>
  <path d="M42.874 397.811l7.145-64.914a16.513 16.513 0 00-4.947-13.725L1.001 277.96c3.748 44.083 18.625 84.982 41.873 119.851z" fill="#afd755"/>
  <path d="M256 0c-9.261 0-18.399.519-27.406 1.478l-.86 19.377c-2.161 6.492 1.339 13.508 7.831 15.669 1.298.435 2.621.637 3.919.637 5.185 0 10.024-3.282 11.75-8.468L260.758.12C259.169.091 257.596 0 256 0z" fill="#bee86e"/>
</svg>
