<svg
  height="682.667"
  width="682.667"
  viewBox="0 1 512 512"
  xmlns="http://www.w3.org/2000/svg"
  fill="red"
  style="transform: rotate(45deg) scale(0.9)"
>
  <path d="M413.008 242.152a7.208 7.208 0 00-10.195 0l-22.13 22.13-.007-.009-25.082-25.086-.047-.03 65.941-65.946a17.227 17.227 0 005.14-12.277c0-4.618-1.85-9.04-5.14-12.282l-57.36-57.359c-6.788-6.77-17.773-6.77-24.558 0l-65.937 65.934-25.903-25.907-.011-.004 22.129-22.129a7.212 7.212 0 000-10.199l-96.88-96.875a7.212 7.212 0 00-10.198 0l-61.188 61.184a7.224 7.224 0 00-2.113 5.101c0 1.91.761 3.747 2.113 5.098l96.883 96.879a7.215 7.215 0 005.098 2.113 7.224 7.224 0 005.101-2.113l26.79-26.793.007.012 25.906 25.902-41.379 41.379c40.422 10.082 71.828 41.89 81.399 82.441l41.902-41.906.031.047 25.086 25.086.012.004-26.793 26.793a7.217 7.217 0 00-2.113 5.101c0 1.91.761 3.746 2.113 5.098l96.879 96.879a7.212 7.212 0 0010.2 0l61.183-61.188a7.212 7.212 0 000-10.199zm0 0M259.473 252.527a93.41 93.41 0 00-54.414-26.726 89.59 89.59 0 00-11.801-.781 93.857 93.857 0 00-60.485 22.042 7.364 7.364 0 00-2.605 5.266 7.36 7.36 0 002.086 5.496l121.922 121.922a7.36 7.36 0 005.496 2.086 7.364 7.364 0 005.265-2.605 93.857 93.857 0 0022.043-60.485 82.878 82.878 0 00-.609-10.414 93.027 93.027 0 00-26.898-55.8zm0 0M190.914 494.645c-95.809-.106-173.453-77.75-173.559-173.56 0-4.792-3.886-8.679-8.675-8.679a8.68 8.68 0 00-8.68 8.68C.117 426.476 85.523 511.883 190.914 512a8.68 8.68 0 008.68-8.68c0-4.793-3.887-8.675-8.68-8.675zm0 0"/>
  <path d="M190.914 442.574C123.848 442.5 69.5 388.152 69.422 321.086c0-4.793-3.883-8.68-8.676-8.68a8.68 8.68 0 00-8.68 8.68c.09 76.644 62.204 138.758 138.848 138.848a8.68 8.68 0 000-17.36zm0 0"/>
  <path d="M190.914 390.508c-38.32-.043-69.379-31.102-69.422-69.422 0-4.793-3.887-8.68-8.68-8.68s-8.675 3.887-8.675 8.68c.054 47.902 38.875 86.723 86.777 86.777 4.793 0 8.68-3.883 8.68-8.675s-3.887-8.68-8.68-8.68zm0 0"/>
</svg>
